<svg width="512" height="512" viewBox="0 0 512 512" fill="none" xmlns="http://www.w3.org/2000/svg">
<g clip-path="url(#clip0_134995_189)">
<mask id="mask0_134995_189" style="mask-type:luminance" maskUnits="userSpaceOnUse" x="0" y="0" width="512" height="512">
<path d="M512 0H0V512H512V0Z" fill="white"/>
</mask>
<g mask="url(#mask0_134995_189)">
<path d="M256 512C397.385 512 512 397.385 512 256C512 114.615 397.385 0 256 0C114.615 0 0 114.615 0 256C0 397.385 114.615 512 256 512Z" fill="url(#paint0_linear_134995_189)"/>
<path d="M256.333 469.667C138.702 469.667 43 373.965 43 256.333C43 138.702 138.702 43 256.333 43C373.969 43 469.666 138.702 469.666 256.333C469.666 373.965 373.969 469.667 256.333 469.667Z" fill="url(#paint1_linear_134995_189)"/>
<path d="M268.029 311.8H243.985V338.101H268.029V311.8Z" fill="#4D4C78"/>
<path d="M220.41 172.395H134.654C133.004 172.395 131.422 173.05 130.256 174.217C129.089 175.383 128.434 176.965 128.434 178.615V331.863C128.432 332.681 128.592 333.492 128.903 334.248C129.215 335.004 129.673 335.692 130.251 336.271C130.828 336.85 131.515 337.309 132.27 337.623C133.026 337.936 133.836 338.098 134.654 338.098H243.985V323.244C243.985 322.995 243.971 322.745 243.941 322.498L226.585 177.883C226.406 176.371 225.679 174.977 224.54 173.966C223.402 172.954 221.932 172.395 220.41 172.395Z" fill="#67BAEB"/>
<path d="M299.01 177.327L268.161 322.234C268.068 322.657 268.019 323.089 268.015 323.522V338.098H377.346C378.164 338.098 378.974 337.936 379.73 337.623C380.485 337.309 381.172 336.85 381.749 336.271C382.327 335.692 382.785 335.004 383.097 334.248C383.408 333.492 383.568 332.681 383.566 331.863V178.615C383.566 176.965 382.911 175.383 381.744 174.217C380.578 173.05 378.996 172.395 377.346 172.395H305.098C303.67 172.392 302.286 172.88 301.177 173.779C300.068 174.677 299.303 175.93 299.01 177.327Z" fill="#67BAEB"/>
<path d="M300.049 172.395L268.015 322.863V311.8H243.985V322.863L225.927 172.395H139.029V333.985L145.293 331.41C179.232 317.444 217.239 317.046 251.463 330.298L256 332.127L260.537 330.298C294.761 317.046 332.768 317.444 366.707 331.41L372.971 333.985V172.395H300.049Z" fill="#46A1F8"/>
<path d="M256 327.21C219.985 312.4 179.581 312.4 143.566 327.21V159.546C179.578 144.722 219.988 144.722 256 159.546V327.21Z" fill="#C8C2E9"/>
<path d="M342.254 351.298L334.6 344.917L326.961 351.298C324.371 353.463 320.419 351.62 320.419 348.239V304.907H348.78V348.239C348.78 351.62 344.844 353.463 342.254 351.298Z" fill="#735C5C"/>
<path d="M320.419 320.873C330.002 321.41 339.504 322.92 348.78 325.381V304.907H320.419V320.873Z" fill="#7B7666"/>
<path d="M256 327.21C292.015 312.4 332.419 312.4 368.434 327.21V159.546C332.422 144.722 292.012 144.722 256 159.546V327.21Z" fill="#C8C2E9"/>
<path d="M152.932 167.932V156.063C149.785 157.117 146.654 158.273 143.566 159.546V327.21C179.814 313.629 219.752 313.629 256 327.21V309.459L254.99 309.122C194.01 289.205 152.932 232.073 152.932 167.932Z" fill="#B9B1E0"/>
<path d="M265.366 167.932V156.063C262.205 157.117 259.083 158.278 256 159.546V327.21C292.248 313.629 332.186 313.629 368.434 327.21V309.459L367.424 309.122C306.429 289.205 265.366 232.073 265.366 167.932Z" fill="#B9B1E0"/>
<path d="M162.093 193.644C161.403 193.647 160.735 193.406 160.206 192.964C159.677 192.522 159.321 191.908 159.2 191.229C159.079 190.551 159.202 189.851 159.546 189.254C159.891 188.657 160.435 188.201 161.083 187.966C185.495 178.97 212.314 178.97 236.727 187.966C237.088 188.098 237.42 188.301 237.703 188.562C237.986 188.822 238.215 189.136 238.376 189.486C238.538 189.835 238.63 190.213 238.645 190.597C238.661 190.982 238.601 191.365 238.468 191.727C238.336 192.088 238.133 192.42 237.872 192.703C237.612 192.986 237.298 193.215 236.948 193.376C236.599 193.538 236.222 193.629 235.837 193.645C235.452 193.661 235.069 193.601 234.707 193.468C211.601 184.942 186.209 184.942 163.102 193.468C162.778 193.583 162.437 193.643 162.093 193.644Z" fill="#B9B1E0"/>
<path d="M162.093 224.668C161.403 224.671 160.735 224.43 160.206 223.989C159.677 223.547 159.321 222.933 159.2 222.254C159.079 221.575 159.202 220.876 159.546 220.279C159.891 219.682 160.435 219.225 161.083 218.99C185.492 209.976 212.318 209.976 236.727 218.99C237.104 219.11 237.453 219.305 237.752 219.563C238.052 219.821 238.296 220.137 238.47 220.493C238.644 220.848 238.745 221.235 238.765 221.63C238.785 222.025 238.725 222.42 238.589 222.791C238.452 223.162 238.242 223.502 237.97 223.789C237.699 224.077 237.372 224.307 237.009 224.464C236.646 224.622 236.255 224.705 235.859 224.707C235.464 224.709 235.072 224.631 234.707 224.478C211.601 215.952 186.209 215.952 163.102 224.478C162.781 224.605 162.438 224.669 162.093 224.668Z" fill="#B9B1E0"/>
<path d="M162.093 255.678C161.41 255.672 160.752 255.427 160.231 254.986C159.71 254.546 159.359 253.937 159.239 253.265C159.119 252.593 159.238 251.901 159.575 251.307C159.911 250.714 160.445 250.257 161.083 250.015C185.492 241 212.318 241 236.727 250.015C237.104 250.134 237.453 250.329 237.752 250.587C238.052 250.845 238.296 251.162 238.47 251.517C238.644 251.872 238.745 252.259 238.765 252.654C238.785 253.049 238.725 253.444 238.589 253.815C238.452 254.187 238.242 254.526 237.97 254.814C237.699 255.102 237.372 255.331 237.009 255.489C236.646 255.646 236.255 255.729 235.859 255.731C235.464 255.734 235.072 255.656 234.707 255.502C211.6 246.976 186.209 246.976 163.102 255.502C162.778 255.617 162.437 255.677 162.093 255.678Z" fill="#B9B1E0"/>
<path d="M162.093 286.702C161.403 286.705 160.735 286.464 160.206 286.023C159.677 285.581 159.321 284.967 159.2 284.288C159.079 283.609 159.202 282.91 159.546 282.313C159.891 281.716 160.435 281.26 161.083 281.024C185.495 272.029 212.314 272.029 236.727 281.024C237.088 281.157 237.42 281.359 237.703 281.62C237.986 281.881 238.215 282.195 238.376 282.544C238.538 282.893 238.63 283.271 238.645 283.656C238.661 284.04 238.601 284.424 238.468 284.785C238.336 285.147 238.133 285.478 237.872 285.761C237.612 286.044 237.298 286.273 236.948 286.435C236.599 286.597 236.222 286.688 235.837 286.704C235.452 286.72 235.069 286.659 234.707 286.527C211.601 278 186.209 278 163.102 286.527C162.778 286.642 162.437 286.701 162.093 286.702Z" fill="#B9B1E0"/>
<path d="M348.151 193.644C347.807 193.643 347.466 193.583 347.141 193.468C324.035 184.942 298.643 184.942 275.537 193.468C274.807 193.736 274.001 193.703 273.295 193.376C272.59 193.05 272.043 192.456 271.776 191.727C271.508 190.997 271.541 190.191 271.867 189.486C272.194 188.78 272.787 188.234 273.517 187.966C297.929 178.97 324.749 178.97 349.161 187.966C349.809 188.201 350.353 188.657 350.698 189.254C351.042 189.851 351.165 190.551 351.044 191.229C350.923 191.908 350.567 192.522 350.038 192.964C349.509 193.406 348.841 193.647 348.151 193.644Z" fill="#B9B1E0"/>
<path d="M348.151 224.668C347.806 224.669 347.463 224.605 347.141 224.478C324.035 215.952 298.643 215.952 275.537 224.478C275.172 224.631 274.78 224.709 274.384 224.707C273.989 224.705 273.598 224.622 273.235 224.464C272.872 224.307 272.545 224.077 272.274 223.789C272.002 223.502 271.792 223.162 271.655 222.791C271.519 222.42 271.459 222.025 271.479 221.63C271.499 221.235 271.6 220.848 271.774 220.493C271.948 220.137 272.192 219.821 272.491 219.563C272.791 219.305 273.14 219.11 273.517 218.99C297.926 209.976 324.752 209.976 349.161 218.99C349.809 219.225 350.353 219.682 350.698 220.279C351.042 220.876 351.165 221.575 351.044 222.254C350.923 222.933 350.567 223.547 350.038 223.989C349.509 224.43 348.841 224.671 348.151 224.668Z" fill="#B9B1E0"/>
<path d="M348.151 255.678C347.807 255.677 347.466 255.617 347.141 255.502C324.035 246.976 298.643 246.976 275.537 255.502C275.172 255.656 274.78 255.734 274.384 255.731C273.989 255.729 273.598 255.646 273.235 255.489C272.872 255.331 272.545 255.102 272.274 254.814C272.002 254.526 271.792 254.187 271.655 253.815C271.519 253.444 271.459 253.049 271.479 252.654C271.499 252.259 271.6 251.872 271.774 251.517C271.948 251.162 272.192 250.845 272.491 250.587C272.791 250.329 273.14 250.134 273.517 250.015C297.926 241 324.752 241 349.161 250.015C349.799 250.257 350.332 250.714 350.669 251.307C351.006 251.901 351.125 252.593 351.005 253.265C350.885 253.937 350.534 254.546 350.013 254.986C349.492 255.427 348.834 255.672 348.151 255.678Z" fill="#B9B1E0"/>
<path d="M348.151 286.702C347.807 286.701 347.466 286.642 347.141 286.527C324.035 278 298.643 278 275.537 286.527C274.807 286.795 274.001 286.762 273.295 286.435C272.59 286.108 272.043 285.515 271.776 284.785C271.508 284.056 271.541 283.25 271.867 282.544C272.194 281.839 272.787 281.292 273.517 281.024C297.929 272.029 324.749 272.029 349.161 281.024C349.809 281.26 350.353 281.716 350.698 282.313C351.042 282.91 351.165 283.609 351.044 284.288C350.923 284.967 350.567 285.581 350.038 286.023C349.509 286.464 348.841 286.705 348.151 286.702Z" fill="#B9B1E0"/>
<path d="M349.761 191.156C349.417 191.155 349.076 191.095 348.751 190.98C325.644 182.454 300.253 182.454 277.146 190.98C276.417 191.248 275.611 191.215 274.905 190.889C274.2 190.562 273.653 189.969 273.385 189.239C273.118 188.509 273.151 187.703 273.477 186.998C273.804 186.293 274.397 185.746 275.127 185.478C299.539 176.483 326.358 176.483 350.771 185.478C351.419 185.713 351.963 186.169 352.307 186.767C352.652 187.364 352.775 188.063 352.654 188.742C352.533 189.42 352.177 190.035 351.648 190.476C351.118 190.918 350.45 191.159 349.761 191.156Z" fill="#DFDAFD"/>
<path d="M349.761 222.181C349.415 222.181 349.073 222.117 348.751 221.99C325.644 213.464 300.253 213.464 277.146 221.99C276.782 222.144 276.39 222.221 275.994 222.219C275.599 222.217 275.208 222.134 274.845 221.977C274.482 221.819 274.155 221.589 273.884 221.302C273.612 221.014 273.402 220.674 273.265 220.303C273.128 219.932 273.068 219.537 273.089 219.142C273.109 218.747 273.209 218.36 273.383 218.005C273.557 217.65 273.802 217.333 274.101 217.075C274.401 216.817 274.75 216.622 275.127 216.502C299.536 207.488 326.362 207.488 350.771 216.502C351.419 216.738 351.963 217.194 352.307 217.791C352.652 218.388 352.775 219.088 352.654 219.766C352.533 220.445 352.177 221.059 351.648 221.501C351.118 221.942 350.45 222.183 349.761 222.181Z" fill="#DFDAFD"/>
<path d="M349.761 253.19C349.417 253.189 349.076 253.13 348.751 253.015C325.644 244.488 300.253 244.488 277.146 253.015C276.782 253.168 276.39 253.246 275.994 253.244C275.599 253.241 275.208 253.159 274.845 253.001C274.482 252.843 274.155 252.614 273.884 252.326C273.612 252.038 273.402 251.699 273.265 251.328C273.128 250.956 273.068 250.561 273.089 250.166C273.109 249.771 273.209 249.384 273.383 249.029C273.557 248.674 273.802 248.358 274.101 248.099C274.401 247.841 274.75 247.646 275.127 247.527C299.536 238.512 326.362 238.512 350.771 247.527C351.409 247.769 351.942 248.226 352.279 248.82C352.616 249.413 352.734 250.106 352.614 250.777C352.495 251.449 352.144 252.058 351.623 252.499C351.102 252.939 350.443 253.184 349.761 253.19Z" fill="#DFDAFD"/>
<path d="M349.761 284.215C349.417 284.213 349.076 284.154 348.751 284.039C325.644 275.513 300.253 275.513 277.146 284.039C276.785 284.172 276.401 284.232 276.017 284.216C275.632 284.2 275.254 284.109 274.905 283.947C274.556 283.786 274.242 283.557 273.981 283.274C273.72 282.991 273.518 282.659 273.385 282.298C273.253 281.936 273.193 281.552 273.208 281.168C273.224 280.783 273.315 280.406 273.477 280.056C273.639 279.707 273.868 279.393 274.151 279.132C274.434 278.872 274.766 278.669 275.127 278.537C299.539 269.541 326.358 269.541 350.771 278.537C351.419 278.772 351.963 279.228 352.307 279.825C352.652 280.422 352.775 281.122 352.654 281.8C352.533 282.479 352.177 283.093 351.648 283.535C351.118 283.977 350.45 284.217 349.761 284.215Z" fill="#DFDAFD"/>
<path d="M163.702 191.156C163.013 191.159 162.345 190.918 161.816 190.476C161.287 190.035 160.93 189.42 160.81 188.742C160.689 188.063 160.812 187.364 161.156 186.767C161.501 186.169 162.045 185.713 162.693 185.478C187.105 176.483 213.924 176.483 238.337 185.478C238.698 185.611 239.03 185.813 239.313 186.074C239.596 186.335 239.825 186.649 239.986 186.998C240.148 187.347 240.239 187.725 240.255 188.109C240.271 188.494 240.211 188.878 240.078 189.239C239.945 189.6 239.743 189.932 239.482 190.215C239.221 190.498 238.907 190.727 238.558 190.889C238.209 191.05 237.831 191.142 237.447 191.157C237.062 191.173 236.678 191.113 236.317 190.98C213.21 182.454 187.819 182.454 164.712 190.98C164.388 191.095 164.047 191.155 163.702 191.156Z" fill="#DFDAFD"/>
<path d="M163.702 222.181C163.013 222.183 162.345 221.942 161.816 221.501C161.287 221.059 160.93 220.445 160.81 219.766C160.689 219.088 160.812 218.388 161.156 217.791C161.501 217.194 162.045 216.738 162.693 216.502C187.102 207.488 213.928 207.488 238.337 216.502C238.714 216.622 239.063 216.817 239.362 217.075C239.662 217.333 239.906 217.65 240.08 218.005C240.254 218.36 240.354 218.747 240.375 219.142C240.395 219.537 240.335 219.932 240.199 220.303C240.062 220.674 239.851 221.014 239.58 221.302C239.308 221.589 238.981 221.819 238.619 221.977C238.256 222.134 237.865 222.217 237.469 222.219C237.074 222.221 236.682 222.144 236.317 221.99C213.21 213.464 187.819 213.464 164.712 221.99C164.391 222.117 164.048 222.181 163.702 222.181Z" fill="#DFDAFD"/>
<path d="M163.702 253.19C163.02 253.184 162.361 252.939 161.84 252.499C161.319 252.058 160.969 251.449 160.849 250.777C160.729 250.106 160.848 249.413 161.185 248.82C161.521 248.226 162.055 247.769 162.693 247.527C187.102 238.512 213.928 238.512 238.337 247.527C238.714 247.646 239.063 247.841 239.362 248.099C239.662 248.358 239.906 248.674 240.08 249.029C240.254 249.384 240.354 249.771 240.375 250.166C240.395 250.561 240.335 250.956 240.198 251.328C240.062 251.699 239.851 252.038 239.58 252.326C239.308 252.614 238.981 252.843 238.618 253.001C238.256 253.159 237.865 253.241 237.469 253.244C237.074 253.246 236.682 253.168 236.317 253.015C213.21 244.488 187.819 244.488 164.712 253.015C164.388 253.13 164.046 253.189 163.702 253.19Z" fill="#DFDAFD"/>
<path d="M163.702 284.215C163.013 284.217 162.345 283.977 161.816 283.535C161.287 283.093 160.93 282.479 160.81 281.8C160.689 281.122 160.812 280.422 161.156 279.825C161.501 279.228 162.045 278.772 162.693 278.537C187.105 269.541 213.924 269.541 238.337 278.537C238.698 278.669 239.03 278.872 239.313 279.132C239.596 279.393 239.825 279.707 239.986 280.056C240.148 280.406 240.239 280.783 240.255 281.168C240.271 281.552 240.211 281.936 240.078 282.298C239.945 282.659 239.743 282.991 239.482 283.274C239.221 283.557 238.907 283.786 238.558 283.947C238.209 284.109 237.831 284.2 237.447 284.216C237.062 284.232 236.678 284.172 236.317 284.039C213.21 275.513 187.819 275.513 164.712 284.039C164.388 284.154 164.047 284.213 163.702 284.215Z" fill="#DFDAFD"/>
<path d="M349.029 192.18C348.685 192.179 348.344 192.12 348.02 192.005C324.913 183.478 299.521 183.478 276.415 192.005C276.053 192.137 275.669 192.198 275.285 192.182C274.9 192.166 274.523 192.075 274.174 191.913C273.824 191.751 273.51 191.522 273.25 191.239C272.989 190.956 272.786 190.625 272.654 190.263C272.521 189.902 272.461 189.518 272.477 189.134C272.492 188.749 272.584 188.371 272.745 188.022C272.907 187.673 273.136 187.359 273.419 187.098C273.702 186.837 274.034 186.635 274.395 186.502C298.807 177.507 325.627 177.507 350.039 186.502C350.687 186.738 351.231 187.194 351.576 187.791C351.92 188.388 352.043 189.087 351.922 189.766C351.801 190.445 351.445 191.059 350.916 191.501C350.387 191.942 349.719 192.183 349.029 192.18Z" fill="#4D4C78"/>
<path d="M349.029 223.205C348.684 223.206 348.341 223.141 348.02 223.015C324.913 214.488 299.521 214.488 276.415 223.015C276.05 223.168 275.658 223.246 275.263 223.244C274.867 223.241 274.476 223.159 274.113 223.001C273.75 222.843 273.423 222.614 273.152 222.326C272.88 222.038 272.67 221.699 272.533 221.328C272.397 220.956 272.337 220.561 272.357 220.166C272.377 219.771 272.478 219.384 272.652 219.029C272.826 218.674 273.07 218.358 273.37 218.099C273.669 217.841 274.018 217.646 274.395 217.527C298.804 208.512 325.63 208.512 350.039 217.527C350.687 217.762 351.231 218.218 351.576 218.815C351.92 219.412 352.043 220.112 351.922 220.791C351.801 221.469 351.445 222.084 350.916 222.525C350.387 222.967 349.719 223.208 349.029 223.205Z" fill="#4D4C78"/>
<path d="M349.029 254.215C348.685 254.213 348.344 254.154 348.02 254.039C324.913 245.512 299.521 245.512 276.415 254.039C276.05 254.192 275.658 254.27 275.263 254.268C274.867 254.265 274.476 254.183 274.113 254.025C273.75 253.868 273.423 253.638 273.152 253.35C272.88 253.063 272.67 252.723 272.533 252.352C272.397 251.981 272.337 251.586 272.357 251.191C272.377 250.795 272.478 250.409 272.652 250.053C272.826 249.698 273.07 249.382 273.37 249.124C273.669 248.866 274.018 248.671 274.395 248.551C298.804 239.536 325.63 239.536 350.039 248.551C350.677 248.793 351.211 249.25 351.547 249.844C351.884 250.437 352.003 251.13 351.883 251.802C351.763 252.473 351.412 253.082 350.891 253.523C350.37 253.963 349.712 254.208 349.029 254.215Z" fill="#4D4C78"/>
<path d="M349.029 285.239C348.685 285.238 348.344 285.178 348.02 285.063C324.913 276.537 299.521 276.537 276.415 285.063C276.053 285.196 275.669 285.256 275.285 285.24C274.9 285.225 274.523 285.133 274.174 284.972C273.824 284.81 273.51 284.581 273.25 284.298C272.989 284.015 272.786 283.683 272.654 283.322C272.521 282.961 272.461 282.577 272.477 282.192C272.492 281.808 272.584 281.43 272.745 281.081C272.907 280.732 273.136 280.418 273.419 280.157C273.702 279.896 274.034 279.694 274.395 279.561C298.807 270.566 325.627 270.566 350.039 279.561C350.687 279.796 351.231 280.252 351.576 280.85C351.92 281.447 352.043 282.146 351.922 282.825C351.801 283.503 351.445 284.118 350.916 284.559C350.387 285.001 349.719 285.242 349.029 285.239Z" fill="#4D4C78"/>
<path d="M368.419 174.21C368.419 170.912 365.746 168.239 362.449 168.239C359.151 168.239 356.478 170.912 356.478 174.21V242.04C356.478 245.338 359.151 248.011 362.449 248.011C365.746 248.011 368.419 245.338 368.419 242.04V174.21Z" fill="#DFDAFD"/>
<path d="M256 180.824C256 178.481 254.1 176.58 251.756 176.58C249.412 176.58 247.512 178.481 247.512 180.824V223.956C247.512 226.299 249.412 228.199 251.756 228.199C254.1 228.199 256 226.299 256 223.956V180.824Z" fill="#DFDAFD"/>
<path d="M162.971 192.18C162.281 192.183 161.613 191.942 161.084 191.501C160.555 191.059 160.199 190.445 160.078 189.766C159.957 189.087 160.08 188.388 160.424 187.791C160.769 187.194 161.313 186.738 161.961 186.502C186.373 177.507 213.193 177.507 237.605 186.502C237.966 186.635 238.298 186.837 238.581 187.098C238.864 187.359 239.093 187.673 239.255 188.022C239.416 188.371 239.508 188.749 239.523 189.134C239.539 189.518 239.479 189.902 239.346 190.263C239.214 190.625 239.011 190.956 238.751 191.239C238.49 191.522 238.176 191.751 237.827 191.913C237.477 192.075 237.1 192.166 236.715 192.182C236.331 192.198 235.947 192.137 235.585 192.005C212.479 183.478 187.087 183.478 163.981 192.005C163.656 192.12 163.315 192.179 162.971 192.18Z" fill="#4D4C78"/>
<path d="M162.971 223.205C162.281 223.208 161.613 222.967 161.084 222.525C160.555 222.084 160.199 221.469 160.078 220.791C159.957 220.112 160.08 219.412 160.424 218.815C160.769 218.218 161.313 217.762 161.961 217.527C186.37 208.512 213.196 208.512 237.605 217.527C237.982 217.646 238.331 217.841 238.631 218.099C238.93 218.358 239.174 218.674 239.348 219.029C239.522 219.384 239.623 219.771 239.643 220.166C239.663 220.561 239.603 220.956 239.467 221.328C239.33 221.699 239.12 222.038 238.848 222.326C238.577 222.614 238.25 222.843 237.887 223.001C237.524 223.159 237.133 223.241 236.738 223.244C236.342 223.246 235.95 223.168 235.585 223.015C212.479 214.488 187.087 214.488 163.981 223.015C163.659 223.141 163.316 223.206 162.971 223.205Z" fill="#4D4C78"/>
<path d="M162.971 254.215C162.288 254.208 161.63 253.963 161.109 253.523C160.588 253.082 160.237 252.473 160.117 251.802C159.997 251.13 160.116 250.437 160.453 249.844C160.789 249.25 161.323 248.793 161.961 248.551C186.37 239.536 213.196 239.536 237.605 248.551C237.982 248.671 238.331 248.866 238.631 249.124C238.93 249.382 239.174 249.698 239.348 250.053C239.522 250.409 239.623 250.795 239.643 251.191C239.663 251.586 239.603 251.981 239.467 252.352C239.33 252.723 239.12 253.063 238.848 253.35C238.577 253.638 238.25 253.868 237.887 254.025C237.524 254.183 237.133 254.265 236.737 254.268C236.342 254.27 235.95 254.192 235.585 254.039C212.479 245.512 187.087 245.512 163.98 254.039C163.656 254.154 163.315 254.213 162.971 254.215Z" fill="#4D4C78"/>
<path d="M162.971 285.239C162.281 285.242 161.613 285.001 161.084 284.559C160.555 284.118 160.199 283.503 160.078 282.825C159.957 282.146 160.08 281.447 160.424 280.85C160.769 280.252 161.313 279.796 161.961 279.561C186.373 270.566 213.193 270.566 237.605 279.561C237.966 279.694 238.298 279.896 238.581 280.157C238.864 280.418 239.093 280.732 239.255 281.081C239.416 281.43 239.508 281.808 239.523 282.192C239.539 282.577 239.479 282.961 239.346 283.322C239.214 283.683 239.011 284.015 238.751 284.298C238.49 284.581 238.176 284.81 237.827 284.972C237.477 285.133 237.1 285.225 236.715 285.24C236.331 285.256 235.947 285.196 235.585 285.063C212.479 276.537 187.087 276.537 163.981 285.063C163.656 285.178 163.315 285.238 162.971 285.239Z" fill="#4D4C78"/>
<path d="M348.78 335.712C348.78 334.112 347.486 332.815 345.89 332.815C344.294 332.815 343 334.112 343 335.712V345.339C343 346.939 344.294 348.236 345.89 348.236C347.486 348.236 348.78 346.939 348.78 345.339V335.712Z" fill="#7B7666"/>
<path d="M383.566 193.951C383.566 192.408 382.314 191.156 380.771 191.156C379.227 191.156 377.976 192.408 377.976 193.951V254.18C377.976 255.723 379.227 256.975 380.771 256.975C382.314 256.975 383.566 255.723 383.566 254.18V193.951Z" fill="#83D0FB"/>
</g>
<path d="M172.4 392.1C170.533 392.1 169.117 391.5 168.15 390.3C167.217 389.067 166.583 386.783 166.25 383.45C166.05 381.717 165.85 379.467 165.65 376.7C163.317 377.4 160.967 378.133 158.6 378.9L156.9 383.6C156.567 384.5 156.333 385.15 156.2 385.55C156.067 385.917 155.817 386.483 155.45 387.25C155.117 388.017 154.817 388.583 154.55 388.95C154.317 389.283 153.967 389.717 153.5 390.25C153.067 390.783 152.617 391.167 152.15 391.4C150.95 392 149.667 392.3 148.3 392.3C146.933 392.3 145.817 391.817 144.95 390.85C144.117 389.85 143.7 388.633 143.7 387.2C143.7 386.8 143.733 386.383 143.8 385.95C144.233 382.75 147.517 379.833 153.65 377.2C155.383 372.767 158.267 365.3 162.3 354.8C163.367 354.2 164.717 353.9 166.35 353.9C166.717 353.9 167.067 353.9 167.4 353.9C167.733 353.9 168.133 353.9 168.6 353.9C169.1 353.9 169.717 354 170.45 354.2C170.483 355.767 171.25 365.483 172.75 383.35C172.883 384.85 173.067 385.833 173.3 386.3C173.533 386.733 173.933 386.95 174.5 386.95C175.433 386.95 176.667 386.317 178.2 385.05C179.767 383.783 181.167 382.2 182.4 380.3L183.8 383.7L182.6 385.3C179.1 389.833 175.7 392.1 172.4 392.1ZM164.45 362.6L160.1 374.75C162.433 373.95 164.167 373.367 165.3 373L164.45 362.6ZM151.9 381.55C148.8 383.117 147.25 384.65 147.25 386.15C147.25 387.217 147.65 387.75 148.45 387.75C149.05 387.75 149.533 387.317 149.9 386.45C150.333 385.517 151 383.883 151.9 381.55ZM186.043 392.35C184.01 392.35 182.41 391.783 181.243 390.65C180.077 389.483 179.493 387.9 179.493 385.9C179.493 385.367 180.393 377.45 182.193 362.15C182.66 358.217 183.91 355.733 185.943 354.7C186.877 354.2 187.993 353.95 189.293 353.95C193.693 353.95 195.893 355.983 195.893 360.05C195.893 360.383 195.877 360.733 195.843 361.1C195.51 365.567 192.71 370.117 187.443 374.75C187.277 376.383 187.093 377.967 186.893 379.5C186.493 382.933 186.293 384.833 186.293 385.2C186.293 386.933 187.043 387.8 188.543 387.8C190.177 387.8 191.693 386.867 193.093 385C194.527 383.1 195.627 380.683 196.393 377.75C196.693 377.85 197.11 378.133 197.643 378.6C198.177 379.033 198.543 379.417 198.743 379.75C198.21 382.517 197.01 385.167 195.143 387.7C194.21 389 193.027 390.067 191.593 390.9C189.96 391.867 188.11 392.35 186.043 392.35ZM187.993 369.75C191.06 366.383 192.593 363.367 192.593 360.7C192.593 359.1 191.993 358.3 190.793 358.3C190.027 358.367 189.51 358.867 189.243 359.8C189.01 360.733 188.777 362.25 188.543 364.35C188.343 366.45 188.21 367.75 188.143 368.25L187.993 369.75ZM216.927 368.45C215.56 379.25 214.877 385 214.877 385.7C214.877 387.033 215.36 387.7 216.327 387.7C217.193 387.7 218.127 387.117 219.127 385.95C220.16 384.75 220.977 382.967 221.577 380.6C222.677 381.8 223.343 382.733 223.577 383.4C222.81 386.633 221.593 388.917 219.927 390.25C218.26 391.583 216.543 392.25 214.777 392.25C211.877 392.25 209.927 391.133 208.927 388.9C207.193 391.133 204.877 392.25 201.977 392.25C199.577 392.25 197.727 391.65 196.427 390.45C195.127 389.25 194.477 387.683 194.477 385.75C194.477 385.283 194.56 384.467 194.727 383.3C195.493 377.1 196.077 372.167 196.477 368.5C197.51 368.133 198.46 367.95 199.327 367.95C200.193 367.95 200.843 367.983 201.277 368.05C201.71 368.117 202.127 368.367 202.527 368.8C202.927 369.233 203.127 369.85 203.127 370.65L201.477 383.4C201.41 383.8 201.377 384.167 201.377 384.5C201.377 386.467 202.277 387.45 204.077 387.45C205.743 387.45 207.127 386.633 208.227 385C208.227 384.633 208.26 384.05 208.327 383.25L209.977 369.95C210.21 369.383 210.71 368.917 211.477 368.55C212.243 368.15 213.193 367.95 214.327 367.95C215.493 367.95 216.36 368.117 216.927 368.45ZM234.718 374.5C234.718 373.033 234.035 372.3 232.668 372.3C231.335 372.3 230.268 373.167 229.468 374.9C233.068 377.733 234.868 380.917 234.868 384.45C234.868 387.017 234.152 388.967 232.718 390.3C231.285 391.633 229.485 392.3 227.318 392.3C225.152 392.3 223.568 391.633 222.568 390.3C221.568 388.933 221.068 387.217 221.068 385.15C221.068 384.517 221.085 384.05 221.118 383.75L222.868 368.5C224.068 368.133 225.285 367.95 226.518 367.95C228.552 367.95 229.568 368.7 229.568 370.2V370.3C230.902 368.733 232.602 367.95 234.668 367.95C236.168 367.95 237.335 368.3 238.168 369C239.002 369.667 239.418 370.567 239.418 371.7C239.418 372.833 238.985 373.767 238.118 374.5C237.285 375.2 236.185 375.55 234.818 375.55C234.752 375.55 234.685 375.55 234.618 375.55C234.685 375.183 234.718 374.833 234.718 374.5ZM231.618 384.2C231.618 382.267 230.618 380.333 228.618 378.4C228.018 383.2 227.718 385.617 227.718 385.65C227.718 387.05 228.285 387.75 229.418 387.75C230.885 387.75 231.618 386.567 231.618 384.2ZM262.824 392.25C259.757 392.25 257.724 391.183 256.724 389.05C254.99 391.217 252.757 392.3 250.024 392.3C247.324 392.3 245.04 391.383 243.174 389.55C241.34 387.717 240.424 385.3 240.424 382.3C240.424 377.933 241.707 374.45 244.274 371.85C246.84 369.25 250.09 367.95 254.024 367.95C254.124 367.95 254.224 367.95 254.324 367.95C255.99 367.95 257.524 368.233 258.924 368.8C259.824 368.233 260.907 367.95 262.174 367.95C263.474 367.95 264.407 368.117 264.974 368.45C264.674 370.917 264.357 373.35 264.024 375.75C263.69 378.117 263.457 379.8 263.324 380.8C263.024 383.067 262.874 384.7 262.874 385.7C262.874 387.033 263.407 387.7 264.474 387.7C265.307 387.7 266.19 387.15 267.124 386.05C268.057 384.917 268.874 383.15 269.574 380.75C270.54 381.617 271.207 382.583 271.574 383.65C270.607 386.817 269.307 389.05 267.674 390.35C266.04 391.617 264.424 392.25 262.824 392.25ZM254.774 371.85C252.64 371.85 250.94 372.667 249.674 374.3C248.44 375.9 247.707 378.3 247.474 381.5C247.44 381.8 247.424 382.083 247.424 382.35C247.424 383.983 247.807 385.283 248.574 386.25C249.374 387.217 250.39 387.7 251.624 387.7C253.724 387.7 255.307 386.217 256.374 383.25L257.574 372.45C256.607 372.05 255.674 371.85 254.774 371.85ZM282.866 405.75C281 405.75 279.4 405.167 278.066 404C276.766 402.867 276.116 401.117 276.116 398.75C276.116 396.383 277.25 394.167 279.516 392.1C275.483 391.533 272.516 389.983 270.616 387.45C268.716 384.883 267.766 381.583 267.766 377.55C267.766 373.483 268.5 369.683 269.966 366.15C271.466 362.583 273.683 359.667 276.616 357.4C279.55 355.1 282.716 353.95 286.116 353.95C289.55 353.95 292.233 354.783 294.166 356.45C296.133 358.083 297.116 360.333 297.116 363.2C297.116 366.067 296.266 368.383 294.566 370.15C292.866 371.883 290.85 372.75 288.516 372.75C286.216 372.75 284.433 372.25 283.166 371.25C281.9 370.217 281.266 369.133 281.266 368C281.266 366.833 281.716 365.933 282.616 365.3C283.55 364.633 284.9 364.3 286.666 364.3C286.233 364.733 286.016 365.317 286.016 366.05C286.016 366.75 286.233 367.367 286.666 367.9C287.1 368.433 287.75 368.7 288.616 368.7C289.516 368.7 290.35 368.233 291.116 367.3C291.916 366.367 292.316 365.1 292.316 363.5C292.316 361.867 291.9 360.6 291.066 359.7C290.233 358.8 288.966 358.35 287.266 358.35C285 358.35 282.933 359.267 281.066 361.1C279.233 362.933 277.833 365.267 276.866 368.1C275.9 370.933 275.416 373.917 275.416 377.05C275.416 379.75 276 382.133 277.166 384.2C277.766 385.267 278.65 386.117 279.816 386.75C281.016 387.383 282.183 387.7 283.316 387.7C284.483 387.7 285.416 387.65 286.116 387.55L287.366 376.65H294.366L293.266 384.8C296.866 382.9 299.233 380.833 300.366 378.6L302.316 381.35C300.15 384.683 296.95 387.217 292.716 388.95L292.066 394.35C291.8 396.783 291.316 398.817 290.616 400.45C289.916 402.083 289.083 403.25 288.116 403.95C287.183 404.683 286.316 405.167 285.516 405.4C284.716 405.633 283.833 405.75 282.866 405.75ZM280.566 398.6C280.566 399.2 280.75 399.717 281.116 400.15C281.483 400.583 281.9 400.8 282.366 400.8C282.866 400.8 283.25 400.717 283.516 400.55C283.783 400.383 284.066 399.95 284.366 399.25C284.666 398.55 284.9 397.567 285.066 396.3L285.566 392.2C282.233 394.267 280.566 396.4 280.566 398.6ZM308.761 380.8C310.827 380.367 312.361 379.533 313.361 378.3C314.394 377.067 314.911 375.883 314.911 374.75C314.911 373.583 314.594 372.8 313.961 372.4C313.361 371.967 312.694 371.75 311.961 371.75C310.394 371.75 309.011 372.633 307.811 374.4C306.644 376.133 306.061 378.217 306.061 380.65C306.061 383.05 306.627 384.85 307.761 386.05C308.927 387.217 310.361 387.8 312.061 387.8C314.561 387.8 316.961 386.933 319.261 385.2C321.561 383.467 323.427 381.2 324.861 378.4C325.594 379.1 326.261 379.967 326.861 381C325.761 383.5 323.811 385.95 321.011 388.35C319.611 389.517 317.944 390.467 316.011 391.2C314.111 391.933 312.144 392.3 310.111 392.3C306.777 392.3 304.144 391.283 302.211 389.25C300.144 387.05 299.111 384.233 299.111 380.8C299.111 377.367 300.394 374.367 302.961 371.8C305.561 369.233 308.661 367.95 312.261 367.95C314.827 367.95 316.911 368.517 318.511 369.65C320.111 370.75 320.927 372.25 320.961 374.15C320.961 376.717 319.927 378.8 317.861 380.4C315.827 382 313.027 383.117 309.461 383.75L308.761 380.8ZM332.052 380.8C334.118 380.367 335.652 379.533 336.652 378.3C337.685 377.067 338.202 375.883 338.202 374.75C338.202 373.583 337.885 372.8 337.252 372.4C336.652 371.967 335.985 371.75 335.252 371.75C333.685 371.75 332.302 372.633 331.102 374.4C329.935 376.133 329.352 378.217 329.352 380.65C329.352 383.05 329.918 384.85 331.052 386.05C332.218 387.217 333.652 387.8 335.352 387.8C337.852 387.8 340.252 386.933 342.552 385.2C344.852 383.467 346.718 381.2 348.152 378.4C348.885 379.1 349.552 379.967 350.152 381C349.052 383.5 347.102 385.95 344.302 388.35C342.902 389.517 341.235 390.467 339.302 391.2C337.402 391.933 335.435 392.3 333.402 392.3C330.068 392.3 327.435 391.283 325.502 389.25C323.435 387.05 322.402 384.233 322.402 380.8C322.402 377.367 323.685 374.367 326.252 371.8C328.852 369.233 331.952 367.95 335.552 367.95C338.118 367.95 340.202 368.517 341.802 369.65C343.402 370.75 344.218 372.25 344.252 374.15C344.252 376.717 343.218 378.8 341.152 380.4C339.118 382 336.318 383.117 332.752 383.75L332.052 380.8ZM368.693 374C368.693 377.467 366.626 380.117 362.493 381.95C362.593 382.55 362.743 383.267 362.943 384.1C363.543 386.567 364.543 387.833 365.943 387.9C366.043 387.9 366.143 387.9 366.243 387.9C368.909 387.9 370.893 385.55 372.193 380.85C372.893 381.483 373.559 382.433 374.193 383.7C373.726 385.5 373.059 387.017 372.193 388.25C371.359 389.483 370.443 390.367 369.443 390.9C367.676 391.833 366.009 392.3 364.443 392.3C360.776 392.3 358.209 390.25 356.743 386.15C356.176 384.517 355.793 382.85 355.593 381.15C357.493 380.683 358.993 379.917 360.093 378.85C361.193 377.75 361.743 376.583 361.743 375.35C361.743 373.217 360.676 372.15 358.543 372.15C357.376 372.15 356.376 372.6 355.543 373.5C354.709 374.367 354.159 375.417 353.893 376.65C353.693 378.35 353.359 381.033 352.893 384.7C352.459 388.333 352.176 390.767 352.043 392H345.393C347.793 371.567 349.243 359.017 349.743 354.35C350.443 354.083 351.393 353.95 352.593 353.95C355.193 353.95 356.493 354.717 356.493 356.25V356.55C355.826 362.583 355.209 367.2 354.643 370.4C356.476 368.7 358.776 367.85 361.543 367.85C363.609 367.85 365.309 368.383 366.643 369.45C368.009 370.517 368.693 372.033 368.693 374Z" fill="#4D4C78"/>
</g>
<defs>
<linearGradient id="paint0_linear_134995_189" x1="3.8e-06" y1="256" x2="512" y2="256" gradientUnits="userSpaceOnUse">
<stop stop-color="#FFCA05"/>
<stop offset="1" stop-color="#FAAC18"/>
</linearGradient>
<linearGradient id="paint1_linear_134995_189" x1="43" y1="256.333" x2="469.666" y2="256.333" gradientUnits="userSpaceOnUse">
<stop stop-color="#FAAC18"/>
<stop offset="1" stop-color="#FFCA05"/>
</linearGradient>
<clipPath id="clip0_134995_189">
<rect width="512" height="512" fill="white"/>
</clipPath>
</defs>
</svg>
