<svg width="512" height="512" viewBox="0 0 512 512" fill="none" xmlns="http://www.w3.org/2000/svg">
<g clip-path="url(#clip0_134991_38)">
<path d="M256 512C397.385 512 512 397.385 512 256C512 114.615 397.385 0 256 0C114.615 0 0 114.615 0 256C0 397.385 114.615 512 256 512Z" fill="url(#paint0_linear_134991_38)"/>
<path d="M256 469.334C138.369 469.334 42.6667 373.632 42.6667 256C42.6667 138.369 138.369 42.6672 256 42.6672C373.636 42.6672 469.333 138.369 469.333 256C469.333 373.632 373.636 469.334 256 469.334Z" fill="url(#paint1_linear_134991_38)"/>
<path opacity="0.3" d="M380.996 175.601H335.325V153.998C335.325 149.028 331.296 145 326.326 145H200.669C195.699 145 191.669 149.028 191.669 153.998V175.601H146V185.599H166.963L189.708 369.15C190.828 378.19 198.51 384.979 207.618 384.979H319.375C328.485 384.979 336.166 378.19 337.286 369.15L360.032 185.599H380.996V175.601ZM220.588 352.948L210.662 223.423L220.632 222.662L230.558 352.187L220.588 352.948ZM268.497 352.567H258.498V223.043H268.497V352.567ZM306.406 352.948L296.436 352.187L306.362 222.662L316.332 223.423L306.406 352.948Z" fill="black"/>
<path d="M373.996 166.601H328.325V144.998C328.325 140.028 324.296 136 319.326 136H193.669C188.699 136 184.669 140.028 184.669 144.998V166.601H139V176.599H159.963L182.708 360.15C183.828 369.19 191.51 375.979 200.618 375.979H312.375C321.485 375.979 329.166 369.19 330.286 360.15L353.032 176.599H373.996V166.601ZM213.588 343.948L203.662 214.423L213.632 213.662L223.558 343.187L213.588 343.948ZM261.497 343.567H251.498V214.043H261.497V343.567ZM299.406 343.948L289.436 343.187L299.362 213.662L309.332 214.423L299.406 343.948Z" fill="white"/>
</g>
<defs>
<linearGradient id="paint0_linear_134991_38" x1="3.8e-06" y1="256" x2="512" y2="256" gradientUnits="userSpaceOnUse">
<stop stop-color="#FFCA05"/>
<stop offset="1" stop-color="#FAAC18"/>
</linearGradient>
<linearGradient id="paint1_linear_134991_38" x1="42.6667" y1="256" x2="469.333" y2="256" gradientUnits="userSpaceOnUse">
<stop stop-color="#FAAC18"/>
<stop offset="1" stop-color="#FFCA05"/>
</linearGradient>
<clipPath id="clip0_134991_38">
<rect width="512" height="512" fill="white"/>
</clipPath>
</defs>
</svg>
